<svg xmlns="http://www.w3.org/2000/svg" width="24" height="24" fill="none"><path fill="#fff" fill-rule="evenodd" d="M5.276 2.552a1.06 1.06 0 0 1 1.86 0l.695 1.27c.175.32.439.584.759.759l1.27.695a1.06 1.06 0 0 1 0 1.86l-1.27.695a1.9 1.9 0 0 0-.759.759l-.695 1.27a1.06 1.06 0 0 1-1.86 0L4.58 8.59a1.9 1.9 0 0 0-.759-.759l-1.27-.695a1.06 1.06 0 0 1 0-1.86l1.27-.695c.32-.175.584-.439.759-.759zm9.956 4.253a1.343 1.343 0 0 0-2.357 0l-1.43 2.616a5.1 5.1 0 0 1-2.024 2.023l-2.616 1.43a1.343 1.343 0 0 0 0 2.358l2.616 1.43a5.1 5.1 0 0 1 2.023 2.024l1.43 2.615c.51.932 1.848.932 2.358 0l1.43-2.615a5.1 5.1 0 0 1 2.024-2.024l2.615-1.43a1.343 1.343 0 0 0 0-2.357l-2.615-1.43a5.1 5.1 0 0 1-2.024-2.024zm-2.3 3.43 1.121-2.049 1.12 2.049a6.8 6.8 0 0 0 2.698 2.698l2.05 1.12-2.05 1.12a6.8 6.8 0 0 0-2.697 2.698l-1.12 2.05-1.121-2.05a6.8 6.8 0 0 0-2.698-2.697l-2.049-1.12 2.049-1.121a6.8 6.8 0 0 0 2.698-2.698" clip-rule="evenodd"/></svg>